<svg width="33" height="30" viewBox="0 0 33 30" fill="none" xmlns="http://www.w3.org/2000/svg">
<g clip-path="url(#clip0_35_73)">
<path d="M25.7996 19.2325L20.478 14.5803L25.6449 9.79282C26.059 9.40841 26.0502 8.79649 25.6231 8.42384L22.8904 6.03499C22.4633 5.66234 21.7833 5.67019 21.3693 6.0546L16.2002 10.8441L10.8807 6.19385C10.4536 5.82121 9.77371 5.82905 9.35966 6.21346L6.70538 8.67292C6.29133 9.05734 6.30004 9.66926 6.72717 10.0419L12.0466 14.6921L6.87971 19.4796C6.46784 19.866 6.47656 20.4779 6.90369 20.8506L9.63642 23.2394C10.0635 23.6121 10.7435 23.6042 11.1575 23.2198L16.3244 18.4323L21.646 23.0845C22.0732 23.4571 22.7531 23.4493 23.1671 23.0649L25.8214 20.6054C26.2355 20.221 26.2268 19.6091 25.7996 19.2364L25.7996 19.2325Z" fill="currentColor"/>
</g>
<defs>
<clipPath id="clip0_35_73">
<rect width="21.8802" height="21.8802" fill="currentColor" transform="matrix(0.743294 -0.668965 0.743294 0.668965 0 14.6372)"/>
</clipPath>
</defs>
</svg>
